PathFileType	4	(X/Y/Z)	/tmp/tmpjnq7zxqp/Me/MarkerData/fast walking03_segment_0.trc
DataRate	CameraRate	NumFrames	NumMarkers	Units	OrigDataRate	OrigDataStartFrame	OrigNumFrames
100.094	100.094	9	38	m	100.094	666	1067
Frame#	Time	C7			CLAV			LANK			LASI			LBHD			LELB			LFHD			LFIN			LFRM			LHEE			LKNE			LPSI			LSHO			LTHI			LTIB			LTOE			LUPA			LWRA			LWRB			RANK			RBAK			RBHD			RELB			RFHD			RFIN			RFRM			RHEE			RKNE			RPSI			RSHO			RTHI			RTIB			RTOE			RUPA			RWRA			RWRB			STRN			T10		
		X1	Y1	Z1	X2	Y2	Z2	X3	Y3	Z3	X4	Y4	Z4	X5	Y5	Z5	X6	Y6	Z6	X7	Y7	Z7	X8	Y8	Z8	X9	Y9	Z9	X10	Y10	Z10	X11	Y11	Z11	X12	Y12	Z12	X13	Y13	Z13	X14	Y14	Z14	X15	Y15	Z15	X16	Y16	Z16	X17	Y17	Z17	X18	Y18	Z18	X19	Y19	Z19	X20	Y20	Z20	X21	Y21	Z21	X22	Y22	Z22	X23	Y23	Z23	X24	Y24	Z24	X25	Y25	Z25	X26	Y26	Z26	X27	Y27	Z27	X28	Y28	Z28	X29	Y29	Z29	X30	Y30	Z30	X31	Y31	Z31	X32	Y32	Z32	X33	Y33	Z33	X34	Y34	Z34	X35	Y35	Z35	X36	Y36	Z36	X37	Y37	Z37	X38	Y38	Z38

667	6.65376	-0.194717	1.44442	-0.0433135	-0.360198	1.37538	-0.0189093	-0.0476265	0.263278	0.101916	-0.29358	0.974758	0.140742	-0.269391	1.60007	0.0457913	-0.28514	1.07717	0.235218	-0.396036	1.63276	0.0631355	-0.408379	0.769764	0.238623	-0.301327	0.919118	0.224597	-0.000909982	0.305155	0.0333308	-0.395066	0.463707	0.163519	-0.16781	0.983153	-0.000189451	-0.242799	1.42847	0.140175	-0.365778	0.651499	0.173202	-0.170259	0.34884	0.140068	-0.105569	0.0946952	0.0664219	-0.273991	1.26375	0.230548	-0.389677	0.854522	0.18213	-0.33543	0.834697	0.227352	-0.318123	0.0945384	-0.13542	-0.16262	1.30202	-0.158967	-0.303221	1.60003	-0.0999658	-0.304927	1.08065	-0.28871	-0.419946	1.62551	-0.0639412	-0.369911	0.741221	-0.31384	-0.308158	0.991831	-0.296975	-0.242545	0.0595264	-0.0799327	-0.414139	0.493082	-0.150447	-0.175255	0.982817	-0.0647003	-0.287317	1.42504	-0.205474	-0.383566	0.822051	-0.194266	-0.369019	0.365845	-0.17757	-0.480085	0.0620726	-0.0762077	-0.320183	1.1781	-0.274086	-0.367426	0.834321	-0.24542	-0.324946	0.826193	-0.304683	-0.405782	1.21932	-0.0056532	-0.156568	1.20993	-0.0347648
668	6.66375	-0.194044	1.44746	-0.0442824	-0.359075	1.3783	-0.0180656	-0.0634884	0.258589	0.100731	-0.292128	0.979332	0.139636	-0.26886	1.60272	0.0463955	-0.276361	1.07952	0.233536	-0.39553	1.63507	0.0638531	-0.3871	0.768121	0.241337	-0.286813	0.92121	0.223085	-0.0149365	0.297934	0.0317942	-0.404841	0.47011	0.163025	-0.166765	0.987204	-0.000844663	-0.240043	1.43127	0.13944	-0.371518	0.657423	0.172883	-0.183451	0.348221	0.13914	-0.129433	0.0929128	0.0663697	-0.268261	1.26626	0.230276	-0.374588	0.853221	0.18356	-0.317207	0.835577	0.226473	-0.304918	0.0947518	-0.135394	-0.162677	1.3057	-0.160685	-0.302805	1.6029	-0.0992847	-0.313648	1.08458	-0.287963	-0.41954	1.62801	-0.0631264	-0.388938	0.747151	-0.309217	-0.319229	0.99575	-0.295807	-0.229166	0.0600837	-0.0795205	-0.403088	0.492782	-0.149758	-0.174077	0.985753	-0.065193	-0.28817	1.42876	-0.205217	-0.381084	0.822541	-0.193994	-0.356146	0.366405	-0.177121	-0.466934	0.0619939	-0.0760167	-0.325968	1.18233	-0.273388	-0.380688	0.840221	-0.241401	-0.341253	0.830728	-0.302046	-0.403782	1.22242	-0.00360746	-0.155581	1.21319	-0.0365532
669	6.67374	-0.193542	1.45019	-0.045079	-0.358026	1.38101	-0.0171967	-0.0798627	0.252777	0.0997573	-0.290601	0.983599	0.138461	-0.268272	1.60511	0.0471034	-0.267456	1.08179	0.232086	-0.394986	1.63716	0.0647552	-0.365833	0.766819	0.243823	-0.272542	0.923498	0.221686	-0.0293487	0.289316	0.0304666	-0.413967	0.476365	0.162571	-0.165783	0.990874	-0.00150307	-0.237514	1.43382	0.138746	-0.37679	0.663318	0.172576	-0.196726	0.346641	0.138436	-0.154305	0.0905239	0.0670829	-0.262476	1.26854	0.229991	-0.359526	0.852081	0.185073	-0.299155	0.83684	0.225614	-0.291818	0.0950543	-0.135246	-0.162961	1.30938	-0.162591	-0.302288	1.60547	-0.0985889	-0.321946	1.08858	-0.287347	-0.419096	1.63032	-0.0622613	-0.408037	0.753606	-0.304385	-0.330065	0.999815	-0.294634	-0.215752	0.0608319	-0.0791093	-0.391689	0.492564	-0.149086	-0.172944	0.988407	-0.0655963	-0.289139	1.43237	-0.204851	-0.378318	0.822796	-0.193715	-0.343037	0.36699	-0.176745	-0.453815	0.0619797	-0.075882	-0.331443	1.18653	-0.272781	-0.393988	0.846435	-0.237361	-0.357186	0.835544	-0.299292	-0.401912	1.22535	-0.00165794	-0.154632	1.21634	-0.0383093
670	6.68373	-0.193179	1.45254	-0.0457582	-0.357042	1.38344	-0.0163219	-0.0967854	0.246006	0.0990531	-0.289054	0.987412	0.137176	-0.267669	1.60717	0.0478848	-0.258438	1.08388	0.230877	-0.394442	1.63904	0.0657671	-0.34485	0.765891	0.246272	-0.258578	0.925872	0.22043	-0.0442612	0.279261	0.0292967	-0.422495	0.482377	0.162167	-0.164678	0.993997	-0.00199124	-0.23517	1.43608	0.138136	-0.381622	0.669041	0.172322	-0.21007	0.344229	0.137898	-0.180424	0.0881312	0.0680447	-0.256627	1.27053	0.229702	-0.344234	0.851063	0.18666	-0.28151	0.838221	0.225015	-0.278875	0.0954182	-0.134978	-0.163538	1.31297	-0.164638	-0.30174	1.60773	-0.0978094	-0.329837	1.09255	-0.286865	-0.418597	1.63232	-0.0613658	-0.427017	0.760479	-0.29929	-0.340633	1.00397	-0.293515	-0.202854	0.0606652	-0.0795911	-0.380241	0.492429	-0.148456	-0.171922	0.990783	-0.0658893	-0.290216	1.43577	-0.204405	-0.375316	0.822832	-0.193368	-0.32995	0.367585	-0.17644	-0.440705	0.0620435	-0.0760377	-0.336636	1.1906	-0.272253	-0.407291	0.852908	-0.233289	-0.372764	0.840544	-0.296347	-0.400259	1.22802	0.000111226	-0.153699	1.21937	-0.0400813
671	6.69372	-0.192712	1.4546	-0.0463811	-0.356103	1.38551	-0.0154725	-0.114313	0.238387	0.0986942	-0.287622	0.990801	0.136049	-0.267036	1.60883	0.0486989	-0.249372	1.08569	0.229879	-0.39379	1.64054	0.0666994	-0.324036	0.765254	0.248515	-0.244791	0.928128	0.219542	-0.0596936	0.267796	0.0284777	-0.430392	0.488072	0.161794	-0.163325	0.996517	-0.00225633	-0.232893	1.43797	0.137612	-0.386028	0.674468	0.172161	-0.223506	0.341201	0.137475	-0.207544	0.085879	0.0688689	-0.250746	1.27217	0.229421	-0.328794	0.850091	0.188376	-0.264317	0.839692	0.224706	-0.266014	0.095719	-0.134704	-0.164402	1.31637	-0.166812	-0.301138	1.60964	-0.096995	-0.337423	1.09638	-0.286463	-0.417999	1.63398	-0.0604505	-0.445824	0.767628	-0.294064	-0.350961	1.00809	-0.292445	-0.189995	0.0604878	-0.0800696	-0.368956	0.49227	-0.147919	-0.170941	0.992837	-0.0660535	-0.291397	1.43886	-0.203867	-0.371986	0.822641	-0.193133	-0.317234	0.368162	-0.17619	-0.427543	0.061983	-0.0762007	-0.341599	1.19445	-0.271819	-0.420573	0.859542	-0.229146	-0.38836	0.845668	-0.29319	-0.398652	1.23038	0.00162121	-0.152747	1.22224	-0.0419
672	6.70371	-0.192291	1.45621	-0.0469105	-0.355218	1.3872	-0.0146042	-0.132444	0.229864	0.0986643	-0.286285	0.993709	0.135125	-0.266358	1.61006	0.0495844	-0.240276	1.08718	0.229105	-0.393073	1.64162	0.0676265	-0.30369	0.764619	0.25055	-0.231191	0.93017	0.219022	-0.0758526	0.25506	0.028176	-0.4377	0.493407	0.161361	-0.161607	0.998436	-0.00232293	-0.230628	1.4394	0.137174	-0.390011	0.679479	0.172093	-0.236965	0.337605	0.137243	-0.23566	0.0838906	0.0698403	-0.244919	1.27343	0.229175	-0.313393	0.849118	0.190298	-0.247615	0.841226	0.224658	-0.253257	0.0960148	-0.134416	-0.165459	1.31948	-0.169051	-0.300569	1.61113	-0.0960643	-0.344749	1.1	-0.28613	-0.417366	1.6353	-0.0594585	-0.464409	0.775026	-0.288663	-0.361057	1.01204	-0.291382	-0.176912	0.0607956	-0.0793673	-0.357929	0.492016	-0.14757	-0.169728	0.994586	-0.0660507	-0.292588	1.44153	-0.203205	-0.367915	0.822139	-0.19357	-0.305019	0.368638	-0.176006	-0.414559	0.0620053	-0.0760254	-0.34638	1.198	-0.271444	-0.433858	0.866249	-0.224875	-0.403925	0.850864	-0.289848	-0.397123	1.23233	0.00276713	-0.151758	1.22489	-0.043779
673	6.7137	-0.191685	1.45749	-0.0473896	-0.354384	1.38844	-0.0137222	-0.151404	0.220461	0.0990679	-0.28487	0.996076	0.134255	-0.265643	1.61087	0.0504929	-0.231225	1.08832	0.22857	-0.392395	1.64241	0.0687278	-0.283861	0.763967	0.252322	-0.217841	0.931965	0.218834	-0.0930489	0.241461	0.0286906	-0.444441	0.498402	0.160788	-0.159431	0.999824	-0.00223658	-0.228612	1.44031	0.136827	-0.393579	0.683986	0.172079	-0.250613	0.333407	0.137295	-0.264506	0.0821294	0.0713401	-0.239164	1.27427	0.229061	-0.29813	0.848077	0.192423	-0.231307	0.8426	0.225025	-0.240482	0.0963265	-0.134178	-0.166685	1.32214	-0.171295	-0.299921	1.61222	-0.0951534	-0.351813	1.10333	-0.285905	-0.416734	1.63629	-0.0584096	-0.482725	0.782644	-0.283064	-0.370944	1.01576	-0.290356	-0.163749	0.0611388	-0.0788797	-0.347164	0.491658	-0.14747	-0.168019	0.996078	-0.0658249	-0.293797	1.44374	-0.202437	-0.363836	0.821471	-0.193945	-0.293322	0.368915	-0.175911	-0.401589	0.0619552	-0.0758043	-0.351004	1.20118	-0.271138	-0.447142	0.873067	-0.220675	-0.419337	0.856122	-0.28634	-0.395778	1.23376	0.00355162	-0.150719	1.22719	-0.0457439
674	6.72369	-0.191156	1.45832	-0.0478334	-0.35362	1.38923	-0.0128152	-0.171318	0.210345	0.0999817	-0.283504	0.997804	0.133497	-0.264929	1.61127	0.0514268	-0.222248	1.08911	0.228292	-0.391709	1.64284	0.0698676	-0.264538	0.763215	0.253804	-0.204755	0.933509	0.218965	-0.11144	0.227004	0.0298013	-0.450656	0.502936	0.160287	-0.157285	1.00068	-0.00208856	-0.226794	1.44068	0.136585	-0.396722	0.687937	0.172154	-0.264706	0.328582	0.137697	-0.293661	0.0802416	0.0732597	-0.233513	1.27465	0.228997	-0.282974	0.846924	0.194461	-0.215406	0.843775	0.225818	-0.227691	0.0965552	-0.134087	-0.168017	1.32426	-0.173426	-0.299243	1.61298	-0.0942549	-0.358644	1.10631	-0.285824	-0.416087	1.63695	-0.0573116	-0.500755	0.790459	-0.277292	-0.380632	1.01925	-0.289374	-0.150645	0.0613608	-0.0788102	-0.336603	0.491198	-0.14759	-0.16593	0.997274	-0.065427	-0.295035	1.44544	-0.201601	-0.359761	0.820647	-0.194195	-0.281956	0.369034	-0.175879	-0.388649	0.0619475	-0.0757441	-0.355513	1.20409	-0.271021	-0.460423	0.879914	-0.216472	-0.434494	0.861327	-0.282645	-0.394647	1.23463	0.00399663	-0.149585	1.22907	-0.0478277
675	6.73368	-0.190741	1.45869	-0.0482105	-0.352955	1.38957	-0.0118578	-0.192268	0.199677	0.101432	-0.282179	0.998857	0.132907	-0.264231	1.61128	0.0524348	-0.213427	1.08954	0.228228	-0.390992	1.64287	0.0710299	-0.245916	0.762331	0.255295	-0.191935	0.934775	0.219411	-0.131148	0.21173	0.0313542	-0.456285	0.507003	0.15993	-0.155348	1.00111	-0.00195774	-0.225059	1.44054	0.136478	-0.399457	0.69132	0.172326	-0.279408	0.323082	0.138488	-0.323019	0.0782356	0.0754744	-0.227989	1.27458	0.228958	-0.267868	0.845609	0.196376	-0.199963	0.84476	0.226965	-0.214845	0.09672	-0.134108	-0.169337	1.32576	-0.175318	-0.298658	1.61332	-0.0932409	-0.36525	1.10886	-0.285847	-0.41547	1.63725	-0.0561624	-0.518428	0.798445	-0.271367	-0.390126	1.02242	-0.288468	-0.138097	0.0612423	-0.0790879	-0.326257	0.490574	-0.147853	-0.164577	0.99784	-0.065232	-0.296262	1.44659	-0.200688	-0.355541	0.81958	-0.19447	-0.270711	0.369071	-0.175922	-0.375733	0.0619536	-0.0758411	-0.359942	1.20655	-0.270888	-0.473426	0.886809	-0.212318	-0.449332	0.866453	-0.278769	-0.393661	1.23491	0.00420336	-0.148333	1.23043	-0.0500503
